<?xml version="1.0" standalone="no"?>
<!DOCTYPE svg PUBLIC "-//W3C//DTD SVG 20010904//EN"
 "http://www.w3.org/TR/2001/REC-SVG-20010904/DTD/svg10.dtd">
<svg version="1.0" xmlns="http://www.w3.org/2000/svg"
 width="235.000000pt" height="216.000000pt" viewBox="0 0 235.000000 216.000000"
 preserveAspectRatio="xMidYMid meet">

<g transform="translate(0.000000,216.000000) scale(0.100000,-0.100000)"
fill="#7049ba" stroke="none">
<path d="M1103 1949 c-18 -5 -43 -24 -57 -42 -19 -25 -448 -761 -853 -1462
-35 -60 -67 -121 -70 -134 -10 -39 18 -103 56 -128 33 -22 42 -23 246 -23
l211 0 31 33 c16 17 66 92 109 165 l79 132 312 0 312 0 87 -146 c48 -80 98
-154 112 -165 23 -17 42 -19 238 -19 l212 0 31 25 c35 30 56 85 46 123 -3 14
-102 188 -219 387 -117 198 -322 547 -456 775 -134 228 -254 427 -268 443 -24
25 -78 48 -112 46 -8 0 -29 -5 -47 -10z m263 -530 c402 -683 634 -1080 634
-1084 0 -3 -49 -5 -108 -5 -91 0 -111 3 -124 18 -8 9 -66 105 -128 212 -256
440 -443 756 -455 769 -17 17 9 56 -335 -518 l-286 -476 -117 -3 c-64 -1 -117
0 -117 3 0 19 824 1415 834 1412 6 -2 97 -149 202 -328z m-87 -578 c55 -93
101 -171 101 -175 0 -3 -94 -6 -210 -6 -115 0 -210 3 -210 7 0 15 204 352 210
348 4 -2 53 -81 109 -174z"/>
</g>
</svg>
