<?xml version="1.0" standalone="no"?>
<!DOCTYPE svg PUBLIC "-//W3C//DTD SVG 20010904//EN"
 "http://www.w3.org/TR/2001/REC-SVG-20010904/DTD/svg10.dtd">
<svg version="1.0" xmlns="http://www.w3.org/2000/svg"
 width="359.000000pt" height="443.000000pt" viewBox="0 0 359.000000 443.000000"
 preserveAspectRatio="xMidYMid meet">

<g transform="translate(0.000000,443.000000) scale(0.100000,-0.100000)"
fill="##9e9e9e" stroke="none">
<path d="M1763 3969 c-18 -5 -43 -24 -57 -42 -13 -17 -105 -171 -203 -342 -99
-170 -292 -504 -430 -741 -279 -479 -293 -504 -293 -534 0 -39 29 -89 62 -110
30 -18 50 -20 244 -20 l210 0 31 33 c16 17 66 92 109 165 l79 132 312 0 312 0
87 -146 c48 -80 98 -154 112 -165 23 -17 42 -19 238 -19 l212 0 31 25 c35 30
56 85 46 122 -3 15 -102 189 -219 387 -117 199 -322 548 -456 776 -134 228
-254 427 -268 443 -24 25 -78 48 -112 46 -8 0 -29 -5 -47 -10z m116 -280 c46
-77 282 -480 597 -1017 101 -172 184 -315 184 -317 0 -3 -49 -5 -108 -5 -91 0
-111 3 -124 18 -8 9 -66 105 -128 212 -258 444 -443 756 -456 769 -16 17 -9
29 -357 -554 l-262 -440 -118 -3 c-64 -1 -117 0 -117 3 0 19 824 1415 834
1412 6 -2 31 -37 55 -78z m60 -828 c55 -92 101 -171 101 -175 0 -3 -94 -6
-210 -6 -115 0 -210 3 -210 7 0 15 204 352 211 348 4 -3 52 -81 108 -174z"/>
<path d="M2610 1785 c-117 -36 -168 -186 -93 -275 30 -36 81 -64 177 -96 78
-27 106 -47 106 -79 0 -78 -135 -91 -238 -22 l-39 26 -38 -39 c-37 -38 -38
-40 -21 -59 9 -10 45 -34 79 -52 58 -32 68 -34 157 -34 77 1 103 5 135 22 75
40 105 88 105 172 0 89 -54 141 -193 186 -107 35 -127 49 -127 83 1 74 84 94
184 44 l56 -29 35 43 35 43 -34 26 c-69 53 -190 69 -286 40z"/>
<path d="M919 1763 c-5 -16 -21 -55 -34 -88 -125 -320 -195 -502 -195 -508 0
-4 31 -7 69 -7 l68 0 22 60 22 61 142 -3 141 -3 22 -55 22 -55 72 -3 c40 -2
70 1 68 6 -1 5 -59 147 -127 315 l-123 307 -79 0 c-78 0 -80 -1 -90 -27z m140
-241 c22 -59 41 -110 41 -115 0 -4 -41 -7 -91 -7 -69 0 -90 3 -86 13 2 6 21
58 42 115 21 56 41 102 45 102 4 0 26 -48 49 -108z"/>
<path d="M1420 1784 c0 -3 45 -72 101 -154 66 -100 97 -154 92 -163 -4 -7 -52
-77 -105 -154 -54 -78 -98 -144 -98 -147 0 -3 35 -6 78 -6 l77 1 70 104 c39
57 73 104 76 105 4 0 37 -47 75 -105 l69 -105 83 0 83 0 -19 28 c-10 15 -60
87 -111 160 l-92 132 98 143 c55 78 103 148 107 155 5 9 -11 12 -72 12 l-78 0
-69 -100 c-38 -55 -71 -100 -74 -100 -3 1 -37 46 -75 100 l-70 100 -73 0 c-40
0 -73 -3 -73 -6z"/>
<path d="M2160 1475 l0 -315 70 0 70 0 0 315 0 315 -70 0 -70 0 0 -315z"/>
<path d="M730 912 c-23 -24 -30 -39 -30 -69 0 -49 24 -73 100 -101 62 -22 80
-42 61 -66 -17 -21 -80 -21 -109 0 -21 15 -25 15 -43 -2 -15 -13 -16 -20 -7
-31 49 -60 195 -55 228 6 19 37 12 90 -16 116 -15 14 -31 25 -36 25 -5 0 -32
10 -59 21 -55 24 -65 52 -26 70 18 8 33 7 61 -5 37 -15 39 -15 56 6 17 22 17
23 -3 37 -12 9 -50 17 -84 19 -58 4 -64 2 -93 -26z"/>
<path d="M1060 905 l0 -35 50 0 50 0 0 -135 0 -135 35 0 35 0 0 134 0 135 53
3 c51 3 52 4 55 36 l3 32 -140 0 -141 0 0 -35z"/>
<path d="M1470 811 c0 -141 8 -164 70 -196 65 -34 171 -9 201 47 7 13 14 77
17 151 l5 127 -35 0 -36 0 -4 -121 c-4 -112 -6 -123 -27 -140 -30 -25 -76 -24
-101 1 -18 18 -20 33 -20 140 l0 120 -35 0 -35 0 0 -129z"/>
<path d="M1920 770 l0 -170 83 0 c93 0 150 20 185 65 66 84 40 214 -52 256
-30 13 -65 19 -128 19 l-88 0 0 -170z m206 76 c75 -75 18 -186 -96 -186 l-40
0 0 110 0 110 51 0 c45 0 55 -4 85 -34z"/>
<path d="M2370 770 l0 -170 35 0 34 0 3 170 3 170 -37 0 -38 0 0 -170z"/>
<path d="M2670 918 c-48 -33 -69 -66 -76 -120 -9 -64 16 -130 64 -166 31 -24
44 -27 108 -27 58 0 78 4 100 21 51 37 68 70 72 137 3 53 0 67 -20 97 -39 58
-82 80 -153 80 -48 0 -70 -5 -95 -22z m165 -62 c48 -48 45 -127 -6 -170 -69
-59 -162 -10 -162 85 0 73 33 107 106 108 27 1 45 -6 62 -23z"/>
</g>
</svg>
